<?xml version="1.0" encoding="UTF-8" standalone="no"?>
<svg width="501px" height="501px" viewBox="0 0 501 501" version="1.1" xmlns="http://www.w3.org/2000/svg" xmlns:xlink="http://www.w3.org/1999/xlink">
    <!-- Generator: Sketch 3.6.1 (26313) - http://www.bohemiancoding.com/sketch -->
    <title>Slice 1</title>
    <desc>Created with Sketch.</desc>
    <defs>
        <path id="path-1" d="M0,499.979757 L499.989879,499.979757 L499.989879,0.0101214575 L0,0.0101214575 L0,499.979757 L0,499.979757 Z"></path>
    </defs>
    <g id="Page-1" stroke="none" stroke-width="1" fill="none" fill-rule="evenodd">
        <g id="spotify_2015">
            <g id="Group-3">
                <mask id="mask-2" fill="white">
                    <use xlink:href="#path-1"></use>
                </mask>
                <g id="Clip-2"></g>
                <path d="M499.989879,250.005061 C499.989879,388.073549 388.063428,500 249.994939,500 C111.926451,500 0,388.073549 0,250.005061 C0,111.936572 111.926451,0.0101214575 249.994939,0.0101214575 C388.063428,0.0101214575 499.989879,111.936572 499.989879,250.005061" id="Fill-1" fill="#4DB05C" mask="url(#mask-2)"></path>
            </g>
            <path d="M432.695682,201.008435 C432.621457,219.109649 413.643725,230.193995 397.746289,221.200067 C386.966937,215.099865 375.931174,209.571525 364.436572,204.962888 C341.59919,195.807355 317.930499,189.646086 293.739204,185.378543 C276.900135,182.408232 259.934548,180.441633 242.876181,179.417004 C225.139676,178.351889 207.391363,178.226383 189.628543,179.145749 C169.276316,180.199393 149.084345,182.434211 129.159244,186.737854 C121.80668,188.325911 114.540148,190.328273 107.268893,192.271255 C102.810054,193.462888 98.4156545,193.61471 93.9740216,192.315452 C84.2526991,189.470985 77.5512821,180.761134 77.2631579,170.561741 C76.9834683,160.654521 83.0954791,151.444332 92.6997301,148.278677 C99.7311066,145.960864 106.946694,144.139676 114.166667,142.47031 C132.039474,138.338731 150.162281,135.785425 168.430837,134.117746 C187.826923,132.347166 207.258772,131.776991 226.704116,132.333671 C274.610324,133.705128 321.584683,140.710526 367.044534,156.404858 C385.580297,162.803981 403.421053,170.746626 420.377868,180.640013 C426.420378,184.167341 430.479082,189.137989 432.024291,196.013833 C432.392038,197.646424 432.479757,199.342105 432.695682,201.008435" id="Fill-4" fill="#0A0A08"></path>
            <path d="M206.398111,256.84413 C177.843792,256.9639 148.593792,260.503374 120.023617,268.982456 C115.368084,270.364035 110.696356,270.456815 106.134953,268.608974 C98.7118758,265.601889 93.8822537,258.163293 94.1440621,250.291835 C94.417004,242.081309 99.4234143,234.930162 107.339069,232.513495 C115.393725,230.054318 123.569501,227.922065 131.791835,226.096154 C152.033401,221.60054 172.548246,219.223347 193.277328,218.436572 C237.872807,216.743927 281.43691,222.512821 323.936572,236.134615 C345.428475,243.022267 365.985155,252.040486 385.401484,263.589069 C386.369771,264.16363 387.327935,264.750675 388.2861,265.336707 C398.414305,271.523617 399.622132,283.979082 394.794197,291.915317 C389.271255,300.989879 377.786775,303.811741 368.24224,298.428475 C362.857625,295.391363 357.537112,292.225371 352.031039,289.419703 C326.797233,276.557692 300.041835,268.219973 272.278677,262.964912 C250.902834,258.918691 229.326586,256.940958 206.398111,256.84413" id="Fill-5" fill="#0A0A08"></path>
            <path d="M210.862348,299.192308 C243.732119,299.538462 275.886977,303.981107 307.09278,314.505398 C324.305668,320.310054 340.74224,327.819838 356.352901,337.119771 C357.705803,337.925101 359.078947,338.717949 360.32726,339.665992 C366.626181,344.450067 368.262483,353.110661 364.207152,359.92915 C360.276653,366.541835 351.933198,369.203779 344.797571,366.052632 C343.367072,365.421727 342.024291,364.571525 340.67139,363.768556 C314.214912,348.087045 285.66498,338.373819 255.317476,333.725034 C236.695344,330.873482 217.969298,329.884615 199.165992,330.623482 C174.842105,331.57996 150.823887,334.954453 127.061066,340.215924 C124.660931,340.745614 122.191633,341.22807 119.749325,341.255061 C112.392038,341.336032 106.181174,336.117072 104.889676,329.041835 C103.522267,321.549258 107.233806,314.526991 114.105601,311.764845 C115.556005,311.181511 117.104251,310.808704 118.635628,310.464575 C138.072874,306.100877 157.692308,302.800945 177.54386,301.121795 C188.625169,300.184211 199.754723,299.816464 210.862348,299.192308" id="Fill-6" fill="#0A0A08"></path>
        </g>
    </g>
</svg>